<?xml version="1.0" encoding="iso-8859-1"?>
<!-- Generator: Adobe Illustrator 19.0.0, SVG Export Plug-In . SVG Version: 6.00 Build 0)  -->
<svg version="1.1" id="Layer_1" xmlns="http://www.w3.org/2000/svg" xmlns:xlink="http://www.w3.org/1999/xlink" x="0px" y="0px"
	 viewBox="0 0 321.067 321.067" style="enable-background:new 0 0 321.067 321.067;" xml:space="preserve">
<g>
	<g>
		<rect x="153.6" width="13.867" height="26.773"/>
	</g>
</g>
<g>
	<g>
		<rect x="86.757" y="17.913" transform="matrix(0.8648 -0.5021 0.5021 0.8648 -3.0492 51.2737)" width="13.867" height="26.773"/>
	</g>
</g>
<g>
	<g>
		<rect x="37.81" y="66.818" transform="matrix(0.5021 -0.8648 0.8648 0.5021 -47.0835 78.6281)" width="13.867" height="26.773"/>
	</g>
</g>
<g>
	<g>
		<rect x="13.44" y="140.16" width="26.773" height="13.867"/>
	</g>
</g>
<g>
	<g>
		
			<rect x="31.275" y="207.143" transform="matrix(0.8648 -0.5021 0.5021 0.8648 -101.4503 51.366)" width="26.773" height="13.867"/>
	</g>
</g>
<g>
	<g>
		
			<rect x="269.378" y="200.579" transform="matrix(0.5021 -0.8648 0.8648 0.5021 -47.465 345.4892)" width="13.867" height="26.773"/>
	</g>
</g>
<g>
	<g>
		<rect x="280.853" y="140.16" width="26.773" height="13.867"/>
	</g>
</g>
<g>
	<g>
		<rect x="262.935" y="73.335" transform="matrix(0.8648 -0.5021 0.5021 0.8648 -2.946 149.5944)" width="26.773" height="13.867"/>
	</g>
</g>
<g>
	<g>
		
			<rect x="214.021" y="24.368" transform="matrix(0.5021 -0.8648 0.8648 0.5021 86.1553 212.2484)" width="26.773" height="13.867"/>
	</g>
</g>
<g>
	<g>
		<path d="M261.013,140.373c0-55.467-45.013-100.587-100.48-100.587c-3.84,0-7.68,0.213-11.52,0.64
			c-45.76,5.013-82.88,41.92-88.32,87.787c-2.773,23.467,2.453,46.293,15.04,66.027c11.413,17.92,19.84,37.973,24.96,59.627H80.32
			v13.867h23.253c0.747,4.267,1.387,8.533,1.813,12.907H86.933v13.867h19.627c0.213,4.16,0.32,8.32,0.32,12.587v13.973h107.307
			v-16.853c0-3.2,0.107-6.507,0.213-9.707h19.733V280.64H215.68c0.533-4.267,1.173-8.64,2.027-12.907h23.04v-13.867H220.8
			c5.44-21.227,14.4-42.347,26.347-62.72C256.213,175.787,261.013,158.187,261.013,140.373z M200.427,304.213v2.987h-79.68v-0.213
			c0-4.16-0.107-8.32-0.32-12.48h80.213C200.533,297.707,200.427,301.013,200.427,304.213z M201.813,280.64H119.36
			c-0.427-4.373-1.067-8.64-1.707-12.907h86.08C202.88,272,202.347,276.373,201.813,280.64z M206.613,253.867h-91.627
			c-5.44-24.427-14.72-47.04-27.52-67.2c-10.773-16.96-15.253-36.587-12.907-56.853c4.693-39.467,36.693-71.253,76.16-75.627
			c3.307-0.32,6.613-0.533,9.92-0.533c47.787,0,86.613,38.933,86.613,86.72c0,15.36-4.16,30.507-11.947,43.733
			C221.973,206.72,212.267,230.187,206.613,253.867z"/>
	</g>
</g>
<g>
	<g>
		<path d="M193.707,125.973c-2.773-12.373-13.013-22.613-25.387-25.387c-10.453-2.347-21.12,0-29.333,6.613
			c-8.213,6.613-12.907,16.427-12.907,26.88h13.867c0-6.293,2.773-12.053,7.68-16c5.013-4.053,11.307-5.44,17.707-3.947
			c7.253,1.6,13.227,7.68,14.933,14.933c1.813,7.893-0.853,15.893-7.147,20.907c-12.48,10.027-19.627,24.107-19.627,38.613v0.213
			h13.76v-0.32c0-10.24,5.227-20.373,14.4-27.733C192.107,152.533,196.693,139.2,193.707,125.973z"/>
	</g>
</g>
<g>
	<g>
		<rect x="153.6" y="197.227" width="13.867" height="13.44"/>
	</g>
</g>
<g>
</g>
<g>
</g>
<g>
</g>
<g>
</g>
<g>
</g>
<g>
</g>
<g>
</g>
<g>
</g>
<g>
</g>
<g>
</g>
<g>
</g>
<g>
</g>
<g>
</g>
<g>
</g>
<g>
</g>
</svg>
