<?xml version="1.0" encoding="UTF-8"?>
<svg xmlns="http://www.w3.org/2000/svg" xmlns:xlink="http://www.w3.org/1999/xlink" width="50pt" height="50pt" viewBox="0 0 50 50" version="1.1">
<g id="surface1">
<path style=" stroke:none;fill-rule:nonzero;fill:rgb(0%,0%,0%);fill-opacity:1;" d="M 25 44.925781 C 24.882812 44.925781 24.765625 44.898438 24.660156 44.847656 L 0.441406 33.128906 C 0.0507812 32.9375 -0.109375 32.472656 0.078125 32.082031 C 0.265625 31.695312 0.730469 31.535156 1.121094 31.71875 L 25 43.273438 L 48.878906 31.722656 C 49.269531 31.535156 49.734375 31.699219 49.921875 32.085938 C 50.109375 32.472656 49.945312 32.941406 49.558594 33.128906 L 25.339844 44.847656 C 25.234375 44.898438 25.117188 44.925781 25 44.925781 Z M 25 44.925781 "/>
<path style=" stroke:none;fill-rule:nonzero;fill:rgb(0%,0%,0%);fill-opacity:1;" d="M 25 48.832031 C 24.882812 48.832031 24.765625 48.804688 24.660156 48.753906 L 0.441406 37.035156 C 0.0507812 36.84375 -0.109375 36.378906 0.078125 35.988281 C 0.265625 35.601562 0.730469 35.441406 1.121094 35.625 L 25 47.179688 L 48.878906 35.628906 C 49.269531 35.441406 49.734375 35.601562 49.921875 35.992188 C 50.109375 36.378906 49.945312 36.847656 49.558594 37.035156 L 25.339844 48.753906 C 25.234375 48.804688 25.117188 48.832031 25 48.832031 Z M 25 48.832031 "/>
<path style=" stroke:none;fill-rule:nonzero;fill:rgb(0%,0%,0%);fill-opacity:1;" d="M 0.78125 37.113281 C 0.347656 37.113281 0 36.761719 0 36.332031 L 0 32.425781 C 0 31.992188 0.347656 31.644531 0.78125 31.644531 C 1.214844 31.644531 1.5625 31.992188 1.5625 32.425781 L 1.5625 36.332031 C 1.5625 36.761719 1.214844 37.113281 0.78125 37.113281 Z M 0.78125 37.113281 "/>
<path style=" stroke:none;fill-rule:nonzero;fill:rgb(0%,0%,0%);fill-opacity:1;" d="M 49.21875 37.113281 C 48.785156 37.113281 48.4375 36.761719 48.4375 36.332031 L 48.4375 32.425781 C 48.4375 31.992188 48.785156 31.644531 49.21875 31.644531 C 49.652344 31.644531 50 31.992188 50 32.425781 L 50 36.332031 C 50 36.761719 49.652344 37.113281 49.21875 37.113281 Z M 49.21875 37.113281 "/>
<path style=" stroke:none;fill-rule:nonzero;fill:rgb(0%,0%,0%);fill-opacity:1;" d="M 25 48.832031 C 24.566406 48.832031 24.21875 48.480469 24.21875 48.050781 L 24.21875 44.144531 C 24.21875 43.710938 24.566406 43.363281 25 43.363281 C 25.433594 43.363281 25.78125 43.710938 25.78125 44.144531 L 25.78125 48.050781 C 25.78125 48.480469 25.433594 48.832031 25 48.832031 Z M 25 48.832031 "/>
<path style=" stroke:none;fill-rule:nonzero;fill:rgb(0%,0%,0%);fill-opacity:1;" d="M 32.835938 43.097656 C 32.402344 43.097656 32.050781 42.746094 32.050781 42.316406 C 32.050781 41.882812 32.394531 41.535156 32.828125 41.535156 L 32.835938 41.535156 C 33.265625 41.535156 33.617188 41.882812 33.617188 42.316406 C 33.617188 42.746094 33.265625 43.097656 32.835938 43.097656 Z M 32.835938 43.097656 "/>
<path style=" stroke:none;fill-rule:nonzero;fill:rgb(0%,0%,0%);fill-opacity:1;" d="M 44.554688 37.425781 C 44.121094 37.425781 43.769531 37.078125 43.769531 36.644531 C 43.769531 36.214844 44.113281 35.863281 44.546875 35.863281 L 44.554688 35.863281 C 44.984375 35.863281 45.335938 36.214844 45.335938 36.644531 C 45.335938 37.078125 44.984375 37.425781 44.554688 37.425781 Z M 44.554688 37.425781 "/>
<path style=" stroke:none;fill-rule:nonzero;fill:rgb(0%,0%,0%);fill-opacity:1;" d="M 40.648438 39.316406 C 40.214844 39.316406 39.863281 38.96875 39.863281 38.535156 C 39.863281 38.101562 40.207031 37.753906 40.640625 37.753906 L 40.648438 37.753906 C 41.078125 37.753906 41.429688 38.101562 41.429688 38.535156 C 41.429688 38.96875 41.078125 39.316406 40.648438 39.316406 Z M 40.648438 39.316406 "/>
<path style=" stroke:none;fill-rule:nonzero;fill:rgb(0%,0%,0%);fill-opacity:1;" d="M 36.742188 41.207031 C 36.308594 41.207031 35.957031 40.859375 35.957031 40.425781 C 35.957031 39.992188 36.300781 39.644531 36.734375 39.644531 L 36.742188 39.644531 C 37.171875 39.644531 37.523438 39.992188 37.523438 40.425781 C 37.523438 40.859375 37.171875 41.207031 36.742188 41.207031 Z M 36.742188 41.207031 "/>
<path style=" stroke:none;fill-rule:nonzero;fill:rgb(0%,0%,0%);fill-opacity:1;" d="M 28.929688 44.988281 C 28.496094 44.988281 28.144531 44.636719 28.144531 44.207031 C 28.144531 43.773438 28.488281 43.425781 28.921875 43.425781 L 28.929688 43.425781 C 29.359375 43.425781 29.710938 43.773438 29.710938 44.207031 C 29.710938 44.636719 29.359375 44.988281 28.929688 44.988281 Z M 28.929688 44.988281 "/>
<path style=" stroke:none;fill-rule:nonzero;fill:rgb(0%,0%,0%);fill-opacity:1;" d="M 17.210938 43.097656 C 16.777344 43.097656 16.425781 42.746094 16.425781 42.316406 C 16.425781 41.882812 16.769531 41.535156 17.203125 41.535156 L 17.210938 41.535156 C 17.640625 41.535156 17.992188 41.882812 17.992188 42.316406 C 17.992188 42.746094 17.640625 43.097656 17.210938 43.097656 Z M 17.210938 43.097656 "/>
<path style=" stroke:none;fill-rule:nonzero;fill:rgb(0%,0%,0%);fill-opacity:1;" d="M 5.492188 37.425781 C 5.058594 37.425781 4.707031 37.078125 4.707031 36.644531 C 4.707031 36.214844 5.050781 35.863281 5.484375 35.863281 L 5.492188 35.863281 C 5.921875 35.863281 6.273438 36.214844 6.273438 36.644531 C 6.273438 37.078125 5.921875 37.425781 5.492188 37.425781 Z M 5.492188 37.425781 "/>
<path style=" stroke:none;fill-rule:nonzero;fill:rgb(0%,0%,0%);fill-opacity:1;" d="M 9.398438 39.316406 C 8.964844 39.316406 8.613281 38.96875 8.613281 38.535156 C 8.613281 38.101562 8.957031 37.753906 9.390625 37.753906 L 9.398438 37.753906 C 9.828125 37.753906 10.179688 38.101562 10.179688 38.535156 C 10.179688 38.96875 9.828125 39.316406 9.398438 39.316406 Z M 9.398438 39.316406 "/>
<path style=" stroke:none;fill-rule:nonzero;fill:rgb(0%,0%,0%);fill-opacity:1;" d="M 13.304688 41.207031 C 12.871094 41.207031 12.519531 40.859375 12.519531 40.425781 C 12.519531 39.992188 12.863281 39.644531 13.296875 39.644531 L 13.304688 39.644531 C 13.734375 39.644531 14.085938 39.992188 14.085938 40.425781 C 14.085938 40.859375 13.734375 41.207031 13.304688 41.207031 Z M 13.304688 41.207031 "/>
<path style=" stroke:none;fill-rule:nonzero;fill:rgb(0%,0%,0%);fill-opacity:1;" d="M 21.117188 44.988281 C 20.683594 44.988281 20.332031 44.636719 20.332031 44.207031 C 20.332031 43.773438 20.675781 43.425781 21.109375 43.425781 L 21.117188 43.425781 C 21.546875 43.425781 21.898438 43.773438 21.898438 44.207031 C 21.898438 44.636719 21.546875 44.988281 21.117188 44.988281 Z M 21.117188 44.988281 "/>
<path style=" stroke:none;fill-rule:nonzero;fill:rgb(0%,0%,0%);fill-opacity:1;" d="M 13.972656 26.824219 C 13.679688 26.824219 13.402344 26.664062 13.265625 26.382812 C 13.078125 25.996094 13.242188 25.527344 13.628906 25.339844 L 16.847656 23.785156 C 17.238281 23.597656 17.703125 23.761719 17.890625 24.148438 C 18.078125 24.535156 17.917969 25.003906 17.527344 25.191406 L 14.3125 26.746094 C 14.199219 26.800781 14.085938 26.824219 13.972656 26.824219 Z M 13.972656 26.824219 "/>
<path style=" stroke:none;fill-rule:nonzero;fill:rgb(0%,0%,0%);fill-opacity:1;" d="M 0.78125 33.207031 C 0.492188 33.207031 0.210938 33.042969 0.078125 32.765625 C -0.109375 32.375 0.0546875 31.910156 0.441406 31.722656 L 9.34375 27.414062 C 9.738281 27.226562 10.199219 27.390625 10.386719 27.777344 C 10.574219 28.164062 10.414062 28.632812 10.023438 28.820312 L 1.121094 33.128906 C 1.011719 33.179688 0.894531 33.207031 0.78125 33.207031 Z M 0.78125 33.207031 "/>
<path style=" stroke:none;fill-rule:nonzero;fill:rgb(0%,0%,0%);fill-opacity:1;" d="M 36.027344 26.824219 C 35.910156 26.824219 35.796875 26.796875 35.6875 26.746094 L 32.472656 25.191406 C 32.085938 25 31.921875 24.535156 32.109375 24.144531 C 32.296875 23.757812 32.761719 23.597656 33.152344 23.78125 L 36.367188 25.335938 C 36.753906 25.527344 36.917969 25.992188 36.730469 26.382812 C 36.59375 26.660156 36.316406 26.824219 36.027344 26.824219 Z M 36.027344 26.824219 "/>
<path style=" stroke:none;fill-rule:nonzero;fill:rgb(0%,0%,0%);fill-opacity:1;" d="M 49.21875 33.207031 C 49.105469 33.207031 48.988281 33.179688 48.878906 33.128906 L 39.972656 28.820312 C 39.585938 28.628906 39.421875 28.164062 39.609375 27.773438 C 39.796875 27.386719 40.265625 27.226562 40.652344 27.410156 L 49.558594 31.71875 C 49.945312 31.910156 50.109375 32.375 49.921875 32.765625 C 49.789062 33.042969 49.507812 33.207031 49.21875 33.207031 Z M 49.21875 33.207031 "/>
<path style=" stroke:none;fill-rule:nonzero;fill:rgb(0%,0%,0%);fill-opacity:1;" d="M 25 37.113281 C 24.878906 37.113281 24.761719 37.085938 24.652344 37.03125 L 16.839844 33.125 C 16.453125 32.929688 16.296875 32.460938 16.488281 32.074219 C 16.683594 31.691406 17.152344 31.535156 17.539062 31.726562 L 25 35.457031 L 32.464844 31.726562 C 32.847656 31.535156 33.320312 31.691406 33.511719 32.074219 C 33.703125 32.460938 33.546875 32.929688 33.164062 33.125 L 25.351562 37.03125 C 25.238281 37.085938 25.121094 37.113281 25 37.113281 Z M 25 37.113281 "/>
<path style=" stroke:none;fill-rule:nonzero;fill:rgb(0%,0%,0%);fill-opacity:1;" d="M 25 10.546875 C 24.878906 10.546875 24.761719 10.519531 24.652344 10.464844 L 16.839844 6.554688 C 16.453125 6.363281 16.296875 5.894531 16.488281 5.507812 C 16.683594 5.121094 17.152344 4.96875 17.539062 5.160156 L 25 8.890625 L 32.464844 5.160156 C 32.847656 4.96875 33.320312 5.121094 33.511719 5.507812 C 33.703125 5.894531 33.546875 6.363281 33.164062 6.554688 L 25.351562 10.464844 C 25.238281 10.519531 25.121094 10.546875 25 10.546875 Z M 25 10.546875 "/>
<path style=" stroke:none;fill-rule:nonzero;fill:rgb(0%,0%,0%);fill-opacity:1;" d="M 32.8125 6.640625 C 32.695312 6.640625 32.574219 6.613281 32.464844 6.558594 L 25 2.824219 L 17.535156 6.554688 C 17.152344 6.746094 16.683594 6.59375 16.488281 6.207031 C 16.296875 5.820312 16.453125 5.351562 16.835938 5.160156 L 24.648438 1.25 C 24.871094 1.140625 25.128906 1.140625 25.347656 1.25 L 33.160156 5.160156 C 33.546875 5.351562 33.703125 5.820312 33.511719 6.207031 C 33.375 6.480469 33.097656 6.640625 32.8125 6.640625 Z M 32.8125 6.640625 "/>
<path style=" stroke:none;fill-rule:nonzero;fill:rgb(0%,0%,0%);fill-opacity:1;" d="M 25 37.113281 C 24.566406 37.113281 24.21875 36.765625 24.21875 36.332031 L 24.21875 9.761719 C 24.21875 9.332031 24.566406 8.980469 25 8.980469 C 25.433594 8.980469 25.78125 9.332031 25.78125 9.761719 L 25.78125 36.332031 C 25.78125 36.765625 25.433594 37.113281 25 37.113281 Z M 25 37.113281 "/>
<path style=" stroke:none;fill-rule:nonzero;fill:rgb(0%,0%,0%);fill-opacity:1;" d="M 32.8125 33.207031 C 32.378906 33.207031 32.03125 32.855469 32.03125 32.425781 L 32.03125 5.855469 C 32.03125 5.425781 32.378906 5.074219 32.8125 5.074219 C 33.246094 5.074219 33.59375 5.425781 33.59375 5.855469 L 33.59375 32.425781 C 33.59375 32.855469 33.246094 33.207031 32.8125 33.207031 Z M 32.8125 33.207031 "/>
<path style=" stroke:none;fill-rule:nonzero;fill:rgb(0%,0%,0%);fill-opacity:1;" d="M 17.1875 33.207031 C 16.753906 33.207031 16.40625 32.855469 16.40625 32.425781 L 16.40625 5.855469 C 16.40625 5.425781 16.753906 5.074219 17.1875 5.074219 C 17.621094 5.074219 17.96875 5.425781 17.96875 5.855469 L 17.96875 32.425781 C 17.96875 32.855469 17.621094 33.207031 17.1875 33.207031 Z M 17.1875 33.207031 "/>
<path style=" stroke:none;fill-rule:nonzero;fill:rgb(0%,0%,0%);fill-opacity:1;" d="M 22.65625 32.03125 C 22.539062 32.03125 22.417969 32.003906 22.304688 31.949219 L 19.179688 30.386719 C 18.792969 30.191406 18.636719 29.722656 18.832031 29.335938 C 19.023438 28.953125 19.492188 28.796875 19.878906 28.988281 L 23.003906 30.550781 C 23.390625 30.746094 23.546875 31.214844 23.355469 31.601562 C 23.21875 31.875 22.941406 32.03125 22.65625 32.03125 Z M 22.65625 32.03125 "/>
<path style=" stroke:none;fill-rule:nonzero;fill:rgb(0%,0%,0%);fill-opacity:1;" d="M 22.65625 28.90625 C 22.539062 28.90625 22.417969 28.878906 22.304688 28.824219 L 19.179688 27.261719 C 18.792969 27.066406 18.636719 26.597656 18.832031 26.210938 C 19.023438 25.828125 19.492188 25.671875 19.878906 25.863281 L 23.003906 27.425781 C 23.390625 27.621094 23.546875 28.089844 23.355469 28.476562 C 23.21875 28.75 22.941406 28.90625 22.65625 28.90625 Z M 22.65625 28.90625 "/>
<path style=" stroke:none;fill-rule:nonzero;fill:rgb(0%,0%,0%);fill-opacity:1;" d="M 22.65625 25.78125 C 22.539062 25.78125 22.417969 25.753906 22.304688 25.699219 L 19.179688 24.136719 C 18.792969 23.941406 18.636719 23.472656 18.832031 23.085938 C 19.023438 22.703125 19.492188 22.546875 19.878906 22.738281 L 23.003906 24.300781 C 23.390625 24.496094 23.546875 24.964844 23.355469 25.351562 C 23.21875 25.625 22.941406 25.78125 22.65625 25.78125 Z M 22.65625 25.78125 "/>
<path style=" stroke:none;fill-rule:nonzero;fill:rgb(0%,0%,0%);fill-opacity:1;" d="M 22.65625 22.65625 C 22.539062 22.65625 22.417969 22.628906 22.304688 22.574219 L 19.179688 21.011719 C 18.792969 20.816406 18.636719 20.347656 18.832031 19.960938 C 19.023438 19.574219 19.492188 19.421875 19.878906 19.613281 L 23.003906 21.175781 C 23.390625 21.371094 23.546875 21.839844 23.355469 22.226562 C 23.21875 22.5 22.941406 22.65625 22.65625 22.65625 Z M 22.65625 22.65625 "/>
<path style=" stroke:none;fill-rule:nonzero;fill:rgb(0%,0%,0%);fill-opacity:1;" d="M 22.65625 19.53125 C 22.539062 19.53125 22.417969 19.503906 22.304688 19.449219 L 19.179688 17.886719 C 18.792969 17.691406 18.636719 17.222656 18.832031 16.835938 C 19.023438 16.453125 19.492188 16.296875 19.878906 16.488281 L 23.003906 18.050781 C 23.390625 18.246094 23.546875 18.714844 23.355469 19.101562 C 23.21875 19.375 22.941406 19.53125 22.65625 19.53125 Z M 22.65625 19.53125 "/>
<path style=" stroke:none;fill-rule:nonzero;fill:rgb(0%,0%,0%);fill-opacity:1;" d="M 22.65625 16.40625 C 22.539062 16.40625 22.417969 16.378906 22.304688 16.324219 L 19.179688 14.761719 C 18.792969 14.566406 18.636719 14.097656 18.832031 13.710938 C 19.023438 13.328125 19.492188 13.171875 19.878906 13.363281 L 23.003906 14.925781 C 23.390625 15.121094 23.546875 15.589844 23.355469 15.976562 C 23.21875 16.25 22.941406 16.40625 22.65625 16.40625 Z M 22.65625 16.40625 "/>
<path style=" stroke:none;fill-rule:nonzero;fill:rgb(0%,0%,0%);fill-opacity:1;" d="M 22.65625 13.28125 C 22.539062 13.28125 22.417969 13.253906 22.304688 13.199219 L 19.179688 11.636719 C 18.792969 11.441406 18.636719 10.972656 18.832031 10.585938 C 19.023438 10.203125 19.492188 10.046875 19.878906 10.238281 L 23.003906 11.800781 C 23.390625 11.996094 23.546875 12.464844 23.355469 12.851562 C 23.21875 13.125 22.941406 13.28125 22.65625 13.28125 Z M 22.65625 13.28125 "/>
<path style=" stroke:none;fill-rule:nonzero;fill:rgb(0%,0%,0%);fill-opacity:1;" d="M 27.34375 32.03125 C 27.058594 32.03125 26.78125 31.875 26.644531 31.597656 C 26.453125 31.214844 26.609375 30.742188 26.996094 30.550781 L 30.121094 28.988281 C 30.507812 28.796875 30.976562 28.949219 31.167969 29.335938 C 31.363281 29.722656 31.207031 30.191406 30.820312 30.386719 L 27.695312 31.949219 C 27.582031 32.003906 27.460938 32.03125 27.34375 32.03125 Z M 27.34375 32.03125 "/>
<path style=" stroke:none;fill-rule:nonzero;fill:rgb(0%,0%,0%);fill-opacity:1;" d="M 27.34375 28.90625 C 27.058594 28.90625 26.78125 28.75 26.644531 28.472656 C 26.453125 28.089844 26.609375 27.617188 26.996094 27.425781 L 30.121094 25.863281 C 30.507812 25.671875 30.976562 25.824219 31.167969 26.210938 C 31.363281 26.597656 31.207031 27.066406 30.820312 27.261719 L 27.695312 28.824219 C 27.582031 28.878906 27.460938 28.90625 27.34375 28.90625 Z M 27.34375 28.90625 "/>
<path style=" stroke:none;fill-rule:nonzero;fill:rgb(0%,0%,0%);fill-opacity:1;" d="M 27.34375 25.78125 C 27.058594 25.78125 26.78125 25.625 26.644531 25.347656 C 26.453125 24.964844 26.609375 24.492188 26.996094 24.300781 L 30.121094 22.738281 C 30.507812 22.546875 30.976562 22.699219 31.167969 23.085938 C 31.363281 23.472656 31.207031 23.941406 30.820312 24.136719 L 27.695312 25.699219 C 27.582031 25.753906 27.460938 25.78125 27.34375 25.78125 Z M 27.34375 25.78125 "/>
<path style=" stroke:none;fill-rule:nonzero;fill:rgb(0%,0%,0%);fill-opacity:1;" d="M 27.34375 22.65625 C 27.058594 22.65625 26.78125 22.5 26.644531 22.222656 C 26.453125 21.839844 26.609375 21.367188 26.996094 21.175781 L 30.121094 19.613281 C 30.507812 19.421875 30.976562 19.574219 31.167969 19.960938 C 31.363281 20.347656 31.207031 20.816406 30.820312 21.011719 L 27.695312 22.574219 C 27.582031 22.628906 27.460938 22.65625 27.34375 22.65625 Z M 27.34375 22.65625 "/>
<path style=" stroke:none;fill-rule:nonzero;fill:rgb(0%,0%,0%);fill-opacity:1;" d="M 27.34375 19.53125 C 27.058594 19.53125 26.78125 19.375 26.644531 19.097656 C 26.453125 18.714844 26.609375 18.242188 26.996094 18.050781 L 30.121094 16.488281 C 30.507812 16.296875 30.976562 16.449219 31.167969 16.835938 C 31.363281 17.222656 31.207031 17.691406 30.820312 17.886719 L 27.695312 19.449219 C 27.582031 19.503906 27.460938 19.53125 27.34375 19.53125 Z M 27.34375 19.53125 "/>
<path style=" stroke:none;fill-rule:nonzero;fill:rgb(0%,0%,0%);fill-opacity:1;" d="M 27.34375 16.40625 C 27.058594 16.40625 26.78125 16.25 26.644531 15.972656 C 26.453125 15.589844 26.609375 15.117188 26.996094 14.925781 L 30.121094 13.363281 C 30.507812 13.171875 30.976562 13.324219 31.167969 13.710938 C 31.363281 14.097656 31.207031 14.566406 30.820312 14.761719 L 27.695312 16.324219 C 27.582031 16.378906 27.460938 16.40625 27.34375 16.40625 Z M 27.34375 16.40625 "/>
<path style=" stroke:none;fill-rule:nonzero;fill:rgb(0%,0%,0%);fill-opacity:1;" d="M 27.34375 13.28125 C 27.058594 13.28125 26.78125 13.125 26.644531 12.847656 C 26.453125 12.464844 26.609375 11.992188 26.996094 11.800781 L 30.121094 10.238281 C 30.507812 10.046875 30.976562 10.199219 31.167969 10.585938 C 31.363281 10.972656 31.207031 11.441406 30.820312 11.636719 L 27.695312 13.199219 C 27.582031 13.253906 27.460938 13.28125 27.34375 13.28125 Z M 27.34375 13.28125 "/>
<path style=" stroke:none;fill-rule:nonzero;fill:rgb(0%,0%,0%);fill-opacity:1;" d="M 38.28125 30.078125 C 36.558594 30.078125 35.15625 28.675781 35.15625 26.953125 C 35.15625 26.0625 36.054688 20.699219 38.28125 20.699219 C 40.507812 20.699219 41.40625 26.0625 41.40625 26.953125 C 41.40625 28.675781 40.003906 30.078125 38.28125 30.078125 Z M 38.28125 22.28125 C 37.664062 22.660156 36.71875 25.664062 36.71875 26.953125 C 36.71875 27.816406 37.417969 28.515625 38.28125 28.515625 C 39.144531 28.515625 39.84375 27.816406 39.84375 26.953125 C 39.84375 25.664062 38.898438 22.660156 38.28125 22.28125 Z M 38.28125 22.28125 "/>
<path style=" stroke:none;fill-rule:nonzero;fill:rgb(0%,0%,0%);fill-opacity:1;" d="M 38.28125 33.199219 C 37.847656 33.199219 37.5 32.851562 37.5 32.417969 L 37.5 26.953125 C 37.5 26.519531 37.847656 26.171875 38.28125 26.171875 C 38.714844 26.171875 39.0625 26.519531 39.0625 26.953125 L 39.0625 32.417969 C 39.0625 32.851562 38.714844 33.199219 38.28125 33.199219 Z M 38.28125 33.199219 "/>
<path style=" stroke:none;fill-rule:nonzero;fill:rgb(0%,0%,0%);fill-opacity:1;" d="M 11.71875 30.078125 C 9.996094 30.078125 8.59375 28.675781 8.59375 26.953125 C 8.59375 26.0625 9.492188 20.699219 11.71875 20.699219 C 13.945312 20.699219 14.84375 26.0625 14.84375 26.953125 C 14.84375 28.675781 13.441406 30.078125 11.71875 30.078125 Z M 11.71875 22.28125 C 11.101562 22.660156 10.15625 25.664062 10.15625 26.953125 C 10.15625 27.816406 10.855469 28.515625 11.71875 28.515625 C 12.582031 28.515625 13.28125 27.816406 13.28125 26.953125 C 13.28125 25.664062 12.335938 22.660156 11.71875 22.28125 Z M 11.71875 22.28125 "/>
<path style=" stroke:none;fill-rule:nonzero;fill:rgb(0%,0%,0%);fill-opacity:1;" d="M 11.71875 33.199219 C 11.285156 33.199219 10.9375 32.851562 10.9375 32.417969 L 10.9375 26.953125 C 10.9375 26.519531 11.285156 26.171875 11.71875 26.171875 C 12.152344 26.171875 12.5 26.519531 12.5 26.953125 L 12.5 32.417969 C 12.5 32.851562 12.152344 33.199219 11.71875 33.199219 Z M 11.71875 33.199219 "/>
</g>
</svg>
