<?xml version="1.0" encoding="UTF-8"?>
<svg xmlns="http://www.w3.org/2000/svg" xmlns:xlink="http://www.w3.org/1999/xlink" width="100pt" height="100pt" viewBox="0 0 100 100" version="1.1">
<g id="surface1">
<path style=" stroke:none;fill-rule:nonzero;fill:rgb(0%,0%,0%);fill-opacity:1;" d="M 98.535156 94.324219 L 94.730469 94.324219 L 94.730469 32.457031 C 94.730469 30.511719 93.144531 28.925781 91.199219 28.925781 L 78.699219 28.925781 C 77.890625 28.925781 77.234375 29.582031 77.234375 30.390625 C 77.234375 31.203125 77.890625 31.855469 78.699219 31.855469 L 91.199219 31.855469 C 91.53125 31.855469 91.800781 32.125 91.800781 32.457031 L 91.800781 94.328125 L 73.320312 94.328125 L 73.320312 87.015625 L 84.496094 87.015625 C 85.992188 87.015625 87.207031 85.800781 87.207031 84.304688 L 87.207031 80.839844 C 87.207031 79.347656 85.992188 78.132812 84.496094 78.132812 L 73.320312 78.132812 L 73.320312 73.835938 L 84.496094 73.835938 C 85.992188 73.835938 87.207031 72.621094 87.207031 71.125 L 87.207031 67.660156 C 87.207031 66.167969 85.992188 64.953125 84.496094 64.953125 L 73.320312 64.953125 L 73.320312 60.65625 L 84.496094 60.65625 C 85.992188 60.65625 87.207031 59.441406 87.207031 57.945312 L 87.207031 54.480469 C 87.207031 52.988281 85.992188 51.773438 84.496094 51.773438 L 73.320312 51.773438 L 73.320312 47.476562 L 84.496094 47.476562 C 85.992188 47.476562 87.207031 46.261719 87.207031 44.765625 L 87.207031 41.300781 C 87.207031 39.808594 85.992188 38.59375 84.496094 38.59375 L 73.320312 38.59375 L 73.320312 18.988281 C 73.320312 17.558594 72.46875 16.28125 71.148438 15.730469 L 40.617188 3.007812 C 39.570312 2.570312 38.378906 2.683594 37.433594 3.3125 C 36.488281 3.945312 35.921875 5 35.921875 6.136719 L 35.921875 13 L 28.148438 13 L 28.148438 7 C 28.148438 6.191406 27.492188 5.535156 26.683594 5.535156 C 25.875 5.535156 25.21875 6.191406 25.21875 7 L 25.21875 13 L 16.429688 13 C 14.480469 13 12.898438 14.585938 12.898438 16.53125 L 12.898438 21.125 L 7.960938 21.125 C 6.011719 21.125 4.429688 22.707031 4.429688 24.65625 L 4.429688 84.820312 L 3.53125 84.820312 C 1.585938 84.820312 0 86.40625 0 88.351562 L 0 93.726562 C 0 95.671875 1.585938 97.257812 3.53125 97.257812 L 98.535156 97.257812 C 99.34375 97.257812 100 96.601562 100 95.792969 C 100 94.980469 99.34375 94.324219 98.535156 94.324219 Z M 84.277344 81.0625 L 84.277344 84.085938 L 73.320312 84.085938 L 73.320312 81.0625 Z M 84.277344 67.882812 L 84.277344 70.90625 L 73.320312 70.90625 L 73.320312 67.882812 Z M 84.277344 54.703125 L 84.277344 57.726562 L 73.320312 57.726562 L 73.320312 54.703125 Z M 84.277344 41.523438 L 84.277344 44.546875 L 73.320312 44.546875 L 73.320312 41.523438 Z M 38.851562 6.136719 C 38.851562 5.921875 38.980469 5.800781 39.058594 5.75 C 39.132812 5.699219 39.292969 5.625 39.492188 5.710938 L 56.75 12.902344 L 56.75 78.898438 C 56.75 79.707031 57.40625 80.363281 58.214844 80.363281 C 59.023438 80.363281 59.679688 79.707031 59.679688 78.898438 L 59.679688 14.125 L 70.023438 18.433594 C 70.246094 18.527344 70.394531 18.746094 70.394531 18.988281 L 70.390625 94.328125 L 59.679688 94.328125 L 59.679688 85.765625 C 59.679688 84.957031 59.023438 84.300781 58.214844 84.300781 C 57.40625 84.300781 56.75 84.957031 56.75 85.765625 L 56.75 94.328125 L 49.554688 94.328125 L 49.554688 46.671875 C 49.554688 44.488281 47.777344 42.714844 45.597656 42.714844 L 38.851562 42.714844 Z M 45.597656 45.644531 C 46.164062 45.644531 46.625 46.105469 46.625 46.671875 L 46.625 94.328125 L 28.148438 94.328125 L 28.148438 46.671875 C 28.148438 46.105469 28.609375 45.644531 29.175781 45.644531 Z M 25.21875 46.671875 L 25.21875 57.003906 L 7.359375 57.003906 L 7.359375 45.644531 L 25.359375 45.644531 C 25.269531 45.972656 25.21875 46.316406 25.21875 46.671875 Z M 7.359375 59.933594 L 25.21875 59.933594 L 25.21875 71.296875 L 7.359375 71.296875 Z M 15.828125 16.53125 C 15.828125 16.199219 16.097656 15.929688 16.429688 15.929688 L 35.921875 15.929688 L 35.921875 21.125 L 15.828125 21.125 Z M 7.960938 24.054688 L 35.921875 24.054688 L 35.921875 29.203125 L 17.785156 29.203125 C 16.976562 29.203125 16.320312 29.859375 16.320312 30.667969 C 16.320312 31.476562 16.976562 32.132812 17.785156 32.132812 L 35.921875 32.132812 L 35.921875 42.714844 L 7.359375 42.714844 L 7.359375 32.132812 L 10.964844 32.132812 C 11.773438 32.132812 12.429688 31.476562 12.429688 30.667969 C 12.429688 29.859375 11.773438 29.203125 10.964844 29.203125 L 7.359375 29.203125 L 7.359375 24.65625 C 7.359375 24.324219 7.628906 24.054688 7.960938 24.054688 Z M 7.359375 74.226562 L 25.21875 74.226562 L 25.21875 84.820312 L 7.359375 84.820312 Z M 3.53125 94.328125 C 3.199219 94.328125 2.929688 94.058594 2.929688 93.726562 L 2.929688 88.351562 C 2.929688 88.019531 3.199219 87.75 3.53125 87.75 L 25.21875 87.75 L 25.21875 94.328125 Z M 3.53125 94.328125 "/>
<path style=" stroke:none;fill-rule:nonzero;fill:rgb(0%,0%,0%);fill-opacity:1;" d="M 33.992188 55.289062 C 34.800781 55.289062 35.457031 54.632812 35.457031 53.824219 L 35.457031 50.691406 C 35.457031 49.882812 34.800781 49.226562 33.992188 49.226562 C 33.183594 49.226562 32.527344 49.882812 32.527344 50.691406 L 32.527344 53.824219 C 32.527344 54.632812 33.183594 55.289062 33.992188 55.289062 Z M 33.992188 55.289062 "/>
<path style=" stroke:none;fill-rule:nonzero;fill:rgb(0%,0%,0%);fill-opacity:1;" d="M 40.726562 55.289062 C 41.535156 55.289062 42.191406 54.632812 42.191406 53.824219 L 42.191406 50.691406 C 42.191406 49.882812 41.535156 49.226562 40.726562 49.226562 C 39.914062 49.226562 39.261719 49.882812 39.261719 50.691406 L 39.261719 53.824219 C 39.261719 54.632812 39.914062 55.289062 40.726562 55.289062 Z M 40.726562 55.289062 "/>
<path style=" stroke:none;fill-rule:nonzero;fill:rgb(0%,0%,0%);fill-opacity:1;" d="M 33.992188 66.234375 C 34.800781 66.234375 35.457031 65.578125 35.457031 64.769531 L 35.457031 61.636719 C 35.457031 60.828125 34.800781 60.171875 33.992188 60.171875 C 33.183594 60.171875 32.527344 60.828125 32.527344 61.636719 L 32.527344 64.769531 C 32.527344 65.578125 33.183594 66.234375 33.992188 66.234375 Z M 33.992188 66.234375 "/>
<path style=" stroke:none;fill-rule:nonzero;fill:rgb(0%,0%,0%);fill-opacity:1;" d="M 40.726562 66.234375 C 41.535156 66.234375 42.191406 65.578125 42.191406 64.769531 L 42.191406 61.636719 C 42.191406 60.828125 41.535156 60.171875 40.726562 60.171875 C 39.914062 60.171875 39.261719 60.828125 39.261719 61.636719 L 39.261719 64.769531 C 39.261719 65.578125 39.914062 66.234375 40.726562 66.234375 Z M 40.726562 66.234375 "/>
<path style=" stroke:none;fill-rule:nonzero;fill:rgb(0%,0%,0%);fill-opacity:1;" d="M 33.992188 77.175781 C 34.800781 77.175781 35.457031 76.519531 35.457031 75.710938 L 35.457031 72.578125 C 35.457031 71.769531 34.800781 71.113281 33.992188 71.113281 C 33.183594 71.113281 32.527344 71.769531 32.527344 72.578125 L 32.527344 75.710938 C 32.527344 76.519531 33.183594 77.175781 33.992188 77.175781 Z M 33.992188 77.175781 "/>
<path style=" stroke:none;fill-rule:nonzero;fill:rgb(0%,0%,0%);fill-opacity:1;" d="M 40.726562 77.175781 C 41.535156 77.175781 42.191406 76.519531 42.191406 75.710938 L 42.191406 72.578125 C 42.191406 71.769531 41.535156 71.113281 40.726562 71.113281 C 39.914062 71.113281 39.261719 71.769531 39.261719 72.578125 L 39.261719 75.710938 C 39.261719 76.519531 39.914062 77.175781 40.726562 77.175781 Z M 40.726562 77.175781 "/>
<path style=" stroke:none;fill-rule:nonzero;fill:rgb(0%,0%,0%);fill-opacity:1;" d="M 33.992188 88.121094 C 34.800781 88.121094 35.457031 87.464844 35.457031 86.65625 L 35.457031 83.523438 C 35.457031 82.714844 34.800781 82.058594 33.992188 82.058594 C 33.183594 82.058594 32.527344 82.714844 32.527344 83.523438 L 32.527344 86.65625 C 32.527344 87.464844 33.183594 88.121094 33.992188 88.121094 Z M 33.992188 88.121094 "/>
<path style=" stroke:none;fill-rule:nonzero;fill:rgb(0%,0%,0%);fill-opacity:1;" d="M 40.726562 88.121094 C 41.535156 88.121094 42.191406 87.464844 42.191406 86.65625 L 42.191406 83.523438 C 42.191406 82.714844 41.535156 82.058594 40.726562 82.058594 C 39.914062 82.058594 39.261719 82.714844 39.261719 83.523438 L 39.261719 86.65625 C 39.261719 87.464844 39.914062 88.121094 40.726562 88.121094 Z M 40.726562 88.121094 "/>
</g>
</svg>
