<?xml version="1.0" encoding="UTF-8"?>
<svg xmlns="http://www.w3.org/2000/svg" xmlns:xlink="http://www.w3.org/1999/xlink" width="49pt" height="34pt" viewBox="0 0 49 34" version="1.1">
<g id="surface1">
<path style=" stroke:none;fill-rule:nonzero;fill:rgb(0%,0%,0%);fill-opacity:1;" d="M 22.722656 3.691406 C 22.527344 3.726562 22.519531 3.773438 22.519531 4.472656 C 22.519531 4.878906 22.546875 5.234375 22.589844 5.25 C 22.625 5.277344 23.441406 5.382812 24.414062 5.5 L 26.171875 5.703125 L 26.234375 7.164062 C 26.261719 7.960938 26.289062 11.75 26.289062 15.574219 C 26.289062 20.851562 26.261719 22.5 26.183594 22.417969 C 26.128906 22.367188 23.082031 18.140625 19.417969 13.042969 L 12.742188 3.761719 L 9.742188 3.738281 L 6.746094 3.71875 L 6.746094 5.285156 L 8.15625 5.445312 C 9.507812 5.605469 9.570312 5.621094 9.734375 5.851562 C 9.902344 6.082031 9.902344 6.347656 9.902344 17.195312 L 9.902344 28.296875 L 8.4375 28.5 C 6.34375 28.785156 6.570312 28.652344 6.570312 29.582031 L 6.570312 30.371094 L 16.035156 30.371094 L 16.035156 28.792969 L 15.753906 28.742188 C 15.597656 28.714844 14.675781 28.589844 13.714844 28.464844 C 12.75 28.34375 11.953125 28.226562 11.941406 28.210938 C 11.925781 28.199219 11.925781 23.851562 11.933594 18.550781 L 11.960938 8.917969 L 18.972656 18.558594 C 22.828125 23.851562 25.980469 28.234375 25.980469 28.289062 C 25.980469 28.351562 23.511719 28.714844 22.632812 28.765625 C 22.546875 28.777344 22.519531 28.996094 22.519531 29.574219 L 22.519531 30.371094 L 42.148438 30.371094 L 42.148438 30.078125 C 42.148438 29.925781 42.226562 28.378906 42.324219 26.652344 C 42.417969 24.925781 42.5 23.355469 42.5 23.171875 L 42.5 22.84375 L 41.316406 22.84375 C 40.667969 22.84375 40.132812 22.871094 40.132812 22.914062 C 40.132812 22.949219 39.878906 24.191406 39.5625 25.667969 C 39.246094 27.148438 38.992188 28.378906 38.992188 28.394531 C 38.992188 28.414062 36.953125 28.414062 34.464844 28.402344 L 29.925781 28.378906 L 29.855469 24.527344 C 29.785156 20.300781 29.855469 5.835938 29.949219 5.738281 C 29.984375 5.710938 30.808594 5.597656 31.789062 5.480469 L 33.558594 5.277344 L 33.558594 3.746094 L 32.710938 3.691406 C 31.78125 3.628906 23.035156 3.628906 22.722656 3.691406 Z M 22.722656 3.691406 "/>
</g>
</svg>
