<svg version="1.0" xmlns="http://www.w3.org/2000/svg"
 width="559.000000pt" height="384.000000pt" viewBox="0 0 559.000000 384.000000"
 preserveAspectRatio="xMidYMid meet">

<g transform="translate(0.000000,384.000000) scale(0.100000,-0.100000)"
fill="#000000" stroke="none">
<path d="M2593 3423 c-22 -4 -23 -9 -23 -88 0 -46 3 -86 8 -88 4 -3 97 -15
208 -28 l201 -23 7 -165 c3 -90 6 -518 6 -950 0 -596 -3 -782 -12 -773 -6 6
-354 483 -772 1059 l-762 1048 -342 3 -342 2 0 -88 0 -89 161 -18 c154 -18
161 -20 180 -46 19 -26 19 -56 19 -1281 l0 -1254 -167 -23 c-239 -32 -213 -17
-213 -122 l0 -89 540 0 540 0 0 89 0 89 -32 6 c-18 3 -123 17 -233 31 -110 14
-201 27 -202 29 -2 1 -2 492 -1 1091 l3 1088 800 -1089 c440 -598 800 -1093
800 -1099 0 -7 -282 -48 -382 -54 -10 -1 -13 -26 -13 -91 l0 -90 1120 0 1120
0 0 33 c0 17 9 192 20 387 11 195 20 372 20 393 l0 37 -135 0 c-74 0 -135 -3
-135 -8 0 -4 -29 -144 -65 -311 -36 -167 -65 -306 -65 -308 0 -2 -233 -2 -517
-1 l-518 3 -8 435 c-8 477 0 2111 11 2122 4 3 98 16 210 29 l202 23 0 86 0 87
-97 6 c-106 7 -1104 7 -1140 0z"/>
</g>
</svg>
